<svg width="41" height="40" viewBox="0 0 31 30" fill="none" xmlns="http://www.w3.org/2000/svg">
<path d="M28 4.375H3C1.96438 4.375 1.125 5.21438 1.125 6.25V23.75C1.125 24.7856 1.96438 25.625 3 25.625H28C29.0356 25.625 29.875 24.7856 29.875 23.75V6.25C29.875 5.21438 29.0356 4.375 28 4.375Z" fill="#007AC6"/>
<path d="M7.08313 15.2681H8.53937L7.81125 13.4825L7.08313 15.2681ZM27.375 11.875H23.6444L22.7344 12.8569L21.915 11.875H13.9987L13.2706 13.4819L12.5425 11.875H9.3575V12.5894L8.99375 11.875H6.26375L3.625 18.125H6.81L7.17375 17.1431H8.08375L8.4475 18.125H11.9962V17.4106L12.2694 18.125H14.0894L14.3625 17.3213V18.125H21.6425L22.5525 17.1431L23.3713 18.125H27.1019L24.7362 15L27.375 11.875ZM16.3644 17.2319H15.3631V13.75L13.8162 17.2319H12.9062L11.3594 13.75V17.2319H9.26625L8.9025 16.25H6.71875L6.355 17.2319H5.17188L7.0825 12.7675H8.62937L10.3581 16.9637V12.7675H12.0869L13.4519 15.8031L14.7256 12.7675H16.4544V17.2319H16.3644ZM25.3731 17.2319H24.0081L22.825 15.7138L21.46 17.2319H17.365V12.7675H21.5506L22.8244 14.1963L24.1894 12.7675H25.4631L23.4619 15L25.3731 17.2319ZM18.3663 13.6606V14.4644H20.6413V15.3575H18.3663V16.25H20.9144L22.0975 14.9106L21.0056 13.6606H18.3663Z" fill="white"/>
</svg>
