<svg width="41" height="40" viewBox="0 0 31 30" fill="none" xmlns="http://www.w3.org/2000/svg">
<path d="M28 4.375H3C1.96438 4.375 1.125 5.21438 1.125 6.25V23.75C1.125 24.7856 1.96438 25.625 3 25.625H28C29.0356 25.625 29.875 24.7856 29.875 23.75V6.25C29.875 5.21438 29.0356 4.375 28 4.375Z" fill="#CD0B0F"/>
<mask id="mask0_9_200" style="mask-type:luminance" maskUnits="userSpaceOnUse" x="7" y="9" width="17" height="11">
<path d="M23.625 9.375H7.375V19.375H23.625V9.375Z" fill="white"/>
</mask>
<g mask="url(#mask0_9_200)">
<path d="M8.1755 10.6229V11.5415H7.97175V10.6229H7.76438V10.4276H8.39013V10.6229H8.1755Z" fill="white"/>
<path d="M9.22631 11.5415L9.10263 11.2485H8.70244L8.57875 11.5415H8.34956L8.81888 10.4276H8.97894L9.45181 11.5415H9.22631ZM8.9025 10.7133L8.77156 11.0605H9.02619L8.9025 10.7133Z" fill="white"/>
<path d="M10.1254 11.5415L9.83438 11.1111H9.82344V11.5415H9.61975V10.4276H9.96169C10.0635 10.4276 10.1581 10.4384 10.2345 10.5072C10.3146 10.5687 10.3654 10.6663 10.3654 10.7675C10.3654 10.8652 10.3254 10.9701 10.2636 11.0352C10.2091 11.0894 10.1545 11.1039 10.0781 11.1256L10.38 11.5379C10.38 11.5415 10.1254 11.5415 10.1254 11.5415ZM9.96169 10.6229H9.82344V10.9629H9.96169C10.0744 10.9629 10.1581 10.905 10.1581 10.7892C10.1581 10.6735 10.0672 10.6229 9.96169 10.6229Z" fill="white"/>
<path d="M10.9034 11.5379C10.8561 11.5524 10.8197 11.5669 10.7724 11.5669C10.5942 11.5669 10.4923 11.4439 10.4596 11.2811H10.6706C10.6778 11.3281 10.7106 11.3752 10.7615 11.3752C10.8488 11.3752 10.867 11.3028 10.867 11.2377V10.4276H11.078V11.2196C11.078 11.3607 11.0343 11.4837 10.9034 11.5379Z" fill="white"/>
<path d="M11.3404 11.5379V10.4276H11.9407V10.6229H11.5442V10.8941H11.9297V11.0858H11.5442V11.3426H11.9407V11.5379H11.3404Z" fill="white"/>
<path d="M12.5154 10.6229V11.5415H12.3117V10.6229H12.1043V10.4276H12.7264V10.6229H12.5154Z" fill="white"/>
<path d="M13.5629 11.5415L13.4465 11.2485H13.0427L12.919 11.5415H12.6934L13.1591 10.4276H13.3191L13.7884 11.5415H13.5629ZM13.2391 10.7133L13.1118 11.0605H13.3664L13.2391 10.7133Z" fill="white"/>
<path d="M10.9619 19.375C8.99381 19.375 7.375 17.7764 7.375 15.8234C7.375 13.8632 8.972 12.2502 10.9619 12.2502C12.9444 12.2502 14.5196 13.8416 14.5196 15.8017C14.5233 17.8199 12.9954 19.375 10.9619 19.375ZM10.9619 13.7186C9.81594 13.7186 8.98656 14.7421 8.98656 15.8234C8.98656 16.941 9.79775 17.9102 10.9619 17.9102C12.1005 17.9102 12.9081 16.9337 12.9081 15.8379C12.9081 14.7638 12.1005 13.7186 10.9619 13.7186Z" fill="white"/>
<path d="M19.3431 19.1616V15.7403C19.3431 14.7783 19.1831 13.7186 17.9608 13.7186C16.7603 13.7186 16.6003 14.8361 16.6003 15.7656V19.1616H14.9923V9.375H16.6003V12.9482C17.1059 12.4781 17.6625 12.2466 18.35 12.2466C19.1103 12.2466 19.9616 12.6734 20.4199 13.2738C20.8564 13.8379 20.9547 14.5829 20.9547 15.2846V19.1616H19.3431Z" fill="white"/>
<path d="M22.0061 9.375H23.6249V16.894H22.0061V9.375ZM23.6249 19.1616H22.0061V17.6318H23.6249V19.1616Z" fill="white"/>
</g>
<path d="M18 23.125H18.7688L19.25 20.625H18.4809L18 23.125Z" fill="white"/>
<path d="M20.5083 21.6392C20.2899 21.5272 20.1561 21.4523 20.1576 21.3389C20.1576 21.2377 20.2708 21.1305 20.5167 21.1305C20.6978 21.1257 20.8774 21.1671 21.0402 21.2512L21.125 20.7262C20.9454 20.6577 20.7557 20.6235 20.5648 20.6251C19.9474 20.6251 19.5114 20.9539 19.5088 21.4244C19.5054 21.7726 19.82 21.9668 20.0563 22.0822C20.2996 22.2008 20.3814 22.2765 20.3802 22.3825C20.3786 22.5449 20.1861 22.6192 20.0062 22.6192C19.7737 22.625 19.5436 22.568 19.3376 22.4536L19.25 22.9957C19.4728 23.0827 19.7085 23.1264 19.9459 23.1249C20.6029 23.1249 21.0293 22.8001 21.034 22.2975C21.0353 22.0217 20.8688 21.812 20.5083 21.6392Z" fill="white"/>
<path d="M23.0614 20.6278H22.5234C22.4478 20.6183 22.3711 20.6334 22.3053 20.6709C22.2393 20.7084 22.1879 20.7661 22.1588 20.835L21.125 23.125H21.8561C21.8561 23.125 21.9756 22.817 22.0025 22.7494H22.8942C22.915 22.8371 22.979 23.1239 22.979 23.1239H23.625L23.0614 20.6278ZM22.2031 22.2391C22.2319 22.1668 22.5159 21.4529 22.5727 21.3018C22.6667 21.7324 22.5752 21.3145 22.7808 22.2391H22.2031Z" fill="white"/>
<path d="M17.2762 20.6285L16.6068 22.3334L16.5356 21.9869L16.2959 20.8381C16.2785 20.7716 16.2375 20.7136 16.1805 20.6747C16.1236 20.6359 16.0544 20.6189 15.9859 20.6269H14.8836L14.875 20.6791C15.1256 20.7381 15.3671 20.8304 15.5931 20.9536L16.2006 23.125H16.9239L18 20.6296L17.2762 20.6285Z" fill="white"/>
</svg>
