<svg width="41" height="40" viewBox="0 0 31 30" fill="none" xmlns="http://www.w3.org/2000/svg">
<path d="M28 4.375H3C1.96447 4.375 1.125 5.21447 1.125 6.25V23.75C1.125 24.7856 1.96447 25.625 3 25.625H28C29.0356 25.625 29.875 24.7856 29.875 23.75V6.25C29.875 5.21447 29.0356 4.375 28 4.375Z" fill="#1A1876"/>
<path d="M12.5238 18H14.1544L15.175 12.015H13.5438L12.5238 18Z" fill="white"/>
<path d="M18.4644 14.4181C17.8944 14.1412 17.5451 13.9562 17.5488 13.6762C17.5488 13.4262 17.8444 13.1612 18.4863 13.1612C18.9593 13.1494 19.4281 13.2517 19.8532 13.4594L20.0744 12.1625C19.6055 11.9934 19.1104 11.9087 18.6119 11.9125C17.0001 11.9125 15.8619 12.725 15.8551 13.8875C15.8463 14.7475 16.6676 15.2275 17.2844 15.5125C17.9194 15.8056 18.1332 15.9925 18.1301 16.2544C18.1257 16.6556 17.6232 16.8394 17.1538 16.8394C16.5466 16.8535 15.9458 16.7126 15.4082 16.43L15.1794 17.7694C15.7609 17.9842 16.3764 18.0924 16.9963 18.0887C18.7113 18.0887 19.8244 17.2862 19.8369 16.0444C19.8401 15.3631 19.4057 14.845 18.4644 14.4181Z" fill="white"/>
<path d="M24.2544 12.0206H22.9938C22.8166 11.9979 22.6369 12.0342 22.4825 12.1239C22.3281 12.2137 22.2075 12.3517 22.1394 12.5169L19.7169 18H21.4301C21.4301 18 21.7101 17.2625 21.7732 17.1006H23.8626C23.9113 17.3106 24.0613 17.9975 24.0613 17.9975H25.5751L24.2544 12.0206ZM22.2432 15.8787C22.3107 15.7056 22.9763 13.9962 23.1094 13.6344C23.3294 14.6656 23.1151 13.665 23.5969 15.8787H22.2432Z" fill="white"/>
<path d="M11.1556 12.0194L9.55806 16.1006L9.38806 15.2713L8.81619 12.5213C8.7745 12.362 8.67669 12.223 8.54069 12.1301C8.40469 12.0372 8.23975 11.9966 8.07619 12.0156H5.44555L5.42493 12.1406C6.02305 12.2818 6.59947 12.5027 7.13869 12.7975L8.58869 17.9956H10.3149L12.8831 12.0219L11.1556 12.0194Z" fill="white"/>
</svg>
